<svg xmlns="http://www.w3.org/2000/svg" width="162.343" height="162.343" viewBox="0 0 162.343 162.343">
  <defs>
    <style>
      .cls-1 {
        fill: rgba(10,27,109,0.21);
      }
    </style>
  </defs>
  <g id="development" transform="translate(-2.25 -2.25)">
    <path id="Path_20" data-name="Path 20" class="cls-1" d="M37.038,13.846V37.038H13.846V13.846H37.038M2.25,2.25V48.634H48.634V2.25Z"/>
    <path id="Path_21" data-name="Path 21" class="cls-1" d="M48.288,17.221V40.413H25.1V17.221H48.288M13.5,5.625V52.009H59.884V5.625Z" transform="translate(46.73 14.019)"/>
    <path id="Path_22" data-name="Path 22" class="cls-1" d="M37.038,27.346V50.538H13.846V27.346H37.038M2.25,15.75V62.134H48.634V15.75Z" transform="translate(0 56.076)"/>
    <path id="Path_23" data-name="Path 23" class="cls-1" d="M80.826,11.25V46.038H46.038V80.826H11.25v46.384H127.209V11.25ZM57.634,57.634H80.826V80.826H57.634Zm-11.6,57.98H22.846V92.422H46.038Zm34.788,0H57.634V92.422H80.826Zm34.788,0H92.422V92.422h23.192Zm0-34.788H92.422V57.634h23.192ZM92.422,46.038V22.846h23.192V46.038Z" transform="translate(37.384 37.384)"/>
  </g>
</svg>
