<svg xmlns="http://www.w3.org/2000/svg" viewBox="0 0 321.87 151.37"><defs><style>.cls-1{fill:#ffcf56;stroke:#ffcf56;}.cls-1,.cls-2{stroke-miterlimit:10;stroke-width:0.5px;}.cls-2{fill:#bfebff;stroke:#bfebff;}</style></defs><g id="Layer_2" data-name="Layer 2"><g id="Layer_1-2" data-name="Layer 1"><path class="cls-1" d="M95.62,126.07a2.81,2.81,0,0,1-.58-2.91c1.16-4.42,2.27-8.85,3.37-13.28a10.54,10.54,0,0,1,4.22-6.26l.71-.54c5.79-4.25,5-3.3,6.67-10Q117.66,63,125.3,32.89a8.31,8.31,0,0,0-.58-6c-3.54-7.27-3.52-7.27-1.46-15.12.84-3.19,1.61-6.4,2.44-9.59.53-2.05,2-2.52,3.55-1.16,2.25,1.92,4.5,3.84,6.7,5.81a1.75,1.75,0,0,0,1.81.43c2.84-.67,5.69-1.25,8.53-1.92a2.61,2.61,0,0,1,2.55.65c2.18,1.94,4.42,3.8,6.58,5.75a1.86,1.86,0,0,0,1.93.45c2.83-.67,5.68-1.25,8.52-1.92a2.54,2.54,0,0,1,2.44.62c2.21,2,4.48,3.85,6.68,5.83a1.77,1.77,0,0,0,1.81.43c2.84-.67,5.69-1.25,8.53-1.92a2.59,2.59,0,0,1,2.55.65c2.21,2,4.44,3.9,6.72,5.78a2.25,2.25,0,0,0,1.65.4c2.9-.57,5.78-1.22,8.66-1.9a2.52,2.52,0,0,1,2.44.62c2.25,2,4.51,4,6.81,5.87a2.08,2.08,0,0,0,1.55.37c2.9-.57,5.77-1.26,8.66-1.88,2.14-.46,3.16.62,2.63,2.76-1.14,4.55-2.3,9.1-3.45,13.65a10.43,10.43,0,0,1-4,6c-1.19.88-2.35,1.79-3.58,2.62a7.64,7.64,0,0,0-3.16,4.7q-6.86,27.32-13.81,54.6a10,10,0,0,1-.33,1.22,1.94,1.94,0,0,1-2.3,1.32,1.89,1.89,0,0,1-1.32-2.38c.26-1.19.59-2.36.9-3.59L115.82,85.73c-.31,1.2-.59,2.34-.88,3.47-.73,2.87-1.48,5.74-2.18,8.61a10.26,10.26,0,0,1-4,6l-4.08,3a6.47,6.47,0,0,0-2.66,4.52l93.82,23.76a6.34,6.34,0,0,0-.17-5.19c-.75-1.66-1.55-3.29-2.29-5a9.64,9.64,0,0,1-.62-6.43,1.87,1.87,0,0,1,2.21-1.58,1.81,1.81,0,0,1,1.49,2.27,7,7,0,0,0,.94,5.36,16.05,16.05,0,0,1,1.47,14.55,96.41,96.41,0,0,0-2.49,9.7,2.8,2.8,0,0,1-1.9,2.29l-1.23-.31q-3.77-3.33-7.55-6.64a1,1,0,0,0-.76-.27c-3.3.74-6.6,1.52-9.89,2.3l-1.23-.31c-2.5-2.19-5-4.39-7.51-6.55a1.48,1.48,0,0,0-1.1-.34c-3.29.7-6.56,1.47-9.84,2.21l-1.23-.31c-2.52-2.23-5-4.47-7.57-6.68a1,1,0,0,0-.79-.19c-3.28.73-6.56,1.5-9.84,2.26l-1.23-.31c-2.49-2.19-5-4.4-7.49-6.56a1.66,1.66,0,0,0-1.23-.28c-3.25.69-6.49,1.44-9.73,2.17l-1.23-.31c-2.51-2.24-5-4.48-7.54-6.7a1.1,1.1,0,0,0-.8-.16c-3.29.74-6.57,1.5-9.86,2.25Zm29.64-77.22-8.37,33,79.92,20.24,8.37-33-1.45-.36-56.45-14.3a12.68,12.68,0,0,1-1.34-.37A1.71,1.71,0,0,1,144.69,52a1.74,1.74,0,0,1,2-1.57,7,7,0,0,1,1.49.3L204.59,65l1.63.41c1-4,2-7.79,2.92-11.61a10.85,10.85,0,0,1,4.49-6.66c1.32-.93,2.61-1.88,3.87-2.87A6.1,6.1,0,0,0,220,39.91l-93.8-23.75a6.35,6.35,0,0,0,.17,5.21c.65,1.42,1.31,2.84,2,4.24a10.82,10.82,0,0,1,.74,7.88c-.92,3.39-1.74,6.8-2.6,10.21l-.36,1.43,2.34.59c3.23.83,6.48,1.63,9.71,2.48a1.91,1.91,0,1,1-.91,3.67c-1.15-.26-2.3-.57-3.45-.86Zm1.84-36.56L221,36.06l1.68-6.64c-2.46.55-4.8,1-7.12,1.6a3.09,3.09,0,0,1-3.12-.77c-2.09-1.91-4.28-3.71-6.38-5.6a1.78,1.78,0,0,0-1.81-.44c-2.74.66-5.52,1.21-8.27,1.88a3,3,0,0,1-3-.74q-3.18-2.91-6.51-5.63a2.23,2.23,0,0,0-1.64-.41q-4.17.81-8.29,1.82a3.09,3.09,0,0,1-3.12-.76c-2.12-1.93-4.3-3.81-6.51-5.64a2.06,2.06,0,0,0-1.54-.39c-2.9.57-5.78,1.22-8.66,1.9a2.68,2.68,0,0,1-2.65-.69q-3.26-2.93-6.62-5.71a2.25,2.25,0,0,0-1.65-.43,64.41,64.41,0,0,0-7.16,1.6,4.61,4.61,0,0,1-5.21-1.33c-1.39-1.44-3-2.66-4.59-4Zm66.09,133.28,1.68-6.61-93.78-23.75-1.68,6.62c2.53-.56,4.92-1,7.29-1.63a2.78,2.78,0,0,1,2.77.71c2.14,1.91,4.36,3.74,6.48,5.67a1.86,1.86,0,0,0,1.93.45c2.79-.66,5.6-1.22,8.39-1.89a2.68,2.68,0,0,1,2.67.67c2.17,1.94,4.41,3.8,6.58,5.74a1.76,1.76,0,0,0,1.81.45c2.79-.67,5.61-1.23,8.4-1.9a2.78,2.78,0,0,1,2.78.69c2.16,1.94,4.36,3.85,6.61,5.7a2.25,2.25,0,0,0,1.65.41c2.73-.53,5.46-1.11,8.16-1.8a3.26,3.26,0,0,1,3.34.82c2.08,1.91,4.23,3.75,6.41,5.55a2.08,2.08,0,0,0,1.54.4c2.73-.54,5.46-1.11,8.16-1.81a3.3,3.3,0,0,1,3.45.84C189.52,142.49,191.32,144,193.19,145.57Z"/><path class="cls-2" d="M2.32,70.34,66.16,34.4a4.07,4.07,0,0,1,6.07,3.54v.2a4.06,4.06,0,0,1-2.11,3.56L16,71.58a4.07,4.07,0,0,0-.06,7.09l54.27,31.22a4.07,4.07,0,0,1,2,3.53h0a4.07,4.07,0,0,1-6.11,3.52L2.29,80.14a4.08,4.08,0,0,1-2-3.53V73.89A4.07,4.07,0,0,1,2.32,70.34Z"/><path class="cls-2" d="M319.55,81,255.71,117a4.06,4.06,0,0,1-6.06-3.54v-.2a4.08,4.08,0,0,1,2.1-3.57l54.14-29.87a4.08,4.08,0,0,0,.07-7.1L251.69,41.47a4,4,0,0,1-2-3.53h0a4.06,4.06,0,0,1,6.1-3.52l63.84,36.8a4.07,4.07,0,0,1,2,3.53v2.72A4.07,4.07,0,0,1,319.55,81Z"/></g></g></svg>